#!OML:ASF E:\Steps\Project 1\Capture day 1\Session 2\Subject.ASF
:FULLY-SPECIFIED
:DEGREES
253
root 7.55656 16.1982 31.3916 -155.263 0.709547 178.224
lowerback -25.6871 -1.40202 -5.33014
upperback -0.541148 0.199316 -0.451046
thorax 13.8368 -0.0868304 2.66563
lowerneck -5.55266 -2.46644 -1.41507
upperneck 15.8534 -4.6967 4.68246
head 5.84401 -2.32615 1.36116
rclavicle 3.97569e-015 2.48481e-014
rhumerus -39.2443 -19.7855 -77.8937
rradius 34.7224
rwrist -1.13895
rhand -5.57629 -54.6549
rfingers 7.12502
rthumb 20.2396 -83.6204
lclavicle 3.97569e-015 2.48481e-014
lhumerus -31.0372 9.51715 79.5029
lradius 23.7863
lwrist -3.32459
lhand -20.8569 -13.9744
lfingers 7.12502
lthumb 5.51254 15.9339
rfemur -22.1434 4.76198 23.367
rtibia 8.4101
rfoot -21.223 -3.14214
rtoes -20.5401
lfemur -43.4571 -9.55265 -18.0783
ltibia 47.7264
lfoot -10.3112 1.32302
ltoes -35.0101
254
root 7.55835 16.1921 31.3787 -155.227 0.770343 178.234
lowerback -25.6647 -1.4214 -5.29056
upperback -0.537139 0.163148 -0.4734
thorax 13.8322 -0.0996655 2.60356
lowerneck -5.6398 -2.37194 -1.28163
upperneck 16.0923 -4.57521 4.46927
head 5.92243 -2.27521 1.27762
rclavicle 1.63997e-015 -8.94531e-015
rhumerus -39.0864 -19.5081 -78.1348
rradius 34.6611
rwrist -0.835996
rhand -5.80746 -53.1142
rfingers 7.12502
rthumb 20.0174 -82.1032
lclavicle 1.63997e-015 -8.94531e-015
lhumerus -31.2319 9.38354 79.486
lradius 24.0832
lwrist -3.10791
lhand -20.7304 -13.8549
lfingers 7.12502
lthumb 5.63469 16.0502
rfemur -22.1312 4.67508 23.4117
rtibia 8.38638
rfoot -21.2317 -2.98017
rtoes -19.738
lfemur -44.2762 -9.44991 -18.0481
ltibia 48.8431
lfoot -10.7202 1.23192
ltoes -35.1123
255
root 7.5634 16.1896 31.3632 -155.267 0.779088 178.232
lowerback -25.5611 -1.41942 -5.33435
upperback -0.494267 0.164346 -0.467691
thorax 13.8252 -0.106313 2.63443
lowerneck -5.82841 -2.35548 -1.21607
upperneck 16.4544 -4.57055 4.28605
head 6.06343 -2.28202 1.20392
rclavicle -1.68967e-015 7.95139e-015
rhumerus -38.9432 -19.2371 -78.2948
rradius 34.6976
rwrist -0.690869
rhand -5.95387 -53.0104
rfingers 7.12502
rthumb 19.8767 -82.014
lclavicle -1.68967e-015 7.95139e-015
lhumerus -31.2653 9.25907 79.5996
lradius 24.2839
lwrist -2.9592
lhand -20.9355 -13.7503
lfingers 7.12502
lthumb 5.43666 16.16
rfemur -21.9733 4.67275 23.4569
rtibia 8.29424
rfoot -21.1829 -3.00328
rtoes -20.5527
lfemur -44.9216 -9.28904 -18.0495
ltibia 49.5933
lfoot -10.8962 1.2672
ltoes -34.9682
256
root 7.56836 16.1917 31.344 -155.247 0.864452 178.207
lowerback -25.6093 -1.39496 -5.45028
upperback -0.456072 0.230454 -0.45725
thorax 13.8917 -0.0890005 2.73738
lowerneck -5.89466 -2.34694 -1.29995
upperneck 16.7717 -4.58749 4.25502
head 6.17655 -2.30211 1.20319
rclavicle 2.5345e-015 -4.37326e-015
rhumerus -38.8232 -19.0897 -78.3277
rradius 34.7394
rwrist -0.739323
rhand -6.03161 -53.2287
rfingers 7.12502
rthumb 19.802 -82.2399
lclavicle 2.5345e-015 -4.37326e-015
lhumerus -31.2274 9.17873 79.7318
lradius 24.3907
lwrist -2.89381
lhand -21.0967 -13.6068
lfingers 7.12502
lthumb 5.28101 16.3074
rfemur -21.8307 5.04953 23.3692
rtibia 8.13503
rfoot -21.1475 -3.27063
rtoes -20.7779
lfemur -45.5447 -9.01524 -18.1349
ltibia 50.0145
lfoot -10.7478 1.57816
ltoes -37.1199
257
root 7.57063 16.1956 31.3229 -155.266 0.947298 178.22
lowerback -25.622 -1.36829 -5.46028
upperback -0.414229 0.267791 -0.469668
thorax 13.9451 -0.076661 2.74219
lowerneck -5.91031 -2.31567 -1.27659
upperneck 16.9995 -4.5671 4.17137
head 6.24827 -2.30183 1.1722
rclavicle -2.43511e-015 -6.55989e-015
rhumerus -38.6256 -19.0093 -78.4393
rradius 34.7602
rwrist -0.76785
rhand -6.43172 -53.3654
rfingers 7.12502
rthumb 19.4173 -82.4159
lclavicle -2.43511e-015 -6.55989e-015
lhumerus -31.2672 9.25366 79.7087
lradius 24.4874
lwrist -2.91637
lhand -21.0055 -13.5211
lfingers 7.12502
lthumb 5.36907 16.3909
rfemur -21.6446 5.32425 23.3276
rtibia 7.97798
rfoot -21.1187 -3.53525
rtoes -20.9916
lfemur -46.0767 -8.80902 -18.156
ltibia 50.3348
lfoot -10.6285 1.84542
ltoes -35.3225
258
root 7.57449 16.1937 31.2983 -155.367 1.10872 178.167
lowerback -25.5389 -1.34627 -5.54039
upperback -0.363638 0.317596 -0.522451
thorax 13.9548 -0.0612862 2.74449
lowerneck -5.93292 -2.29822 -1.19538
upperneck 17.1504 -4.56002 4.08067
head 6.29612 -2.30324 1.12889
rclavicle -5.96354e-016 1.66979e-014
rhumerus -38.3744 -18.8581 -78.6719
rradius 34.8109
rwrist -0.878341
rhand -7.39075 -54.3358
rfingers 7.12502
rthumb 18.495 -83.4765
lclavicle -5.96354e-016 1.66979e-014
lhumerus -31.3429 9.34356 79.6272
lradius 24.5366
lwrist -2.82758
lhand -21.0655 -13.3257
lfingers 7.12502
lthumb 5.31112 16.5877
rfemur -21.3963 5.06049 23.3548
rtibia 7.90409
rfoot -21.1727 -3.29407
rtoes -22.1452
lfemur -46.4074 -8.5973 -18.2591
ltibia 50.4299
lfoot -10.7611 1.90098
ltoes -33.1313
259
root 7.57736 16.187 31.2739 -155.28 1.34004 177.878
lowerback -25.5854 -1.38821 -5.89433
upperback -0.397606 0.394677 -0.618707
thorax 13.9348 -0.0405733 2.8666
lowerneck -5.73801 -2.27074 -1.31463
upperneck 17.1286 -4.54967 4.24324
head 6.2609 -2.30217 1.20363
rclavicle 1.14301e-015 2.0276e-014
rhumerus -38.1734 -18.7485 -78.8234
rradius 34.8345
rwrist -0.915204
rhand -8.07177 -55.5018
rfingers 7.12502
rthumb 17.8398 -84.7035
lclavicle 1.14301e-015 2.0276e-014
lhumerus -31.4935 9.32237 79.5993
lradius 24.5955
lwrist -2.70987
lhand -21.2476 -13.0273
lfingers 7.12502
lthumb 5.1353 16.8904
rfemur -21.384 4.80277 23.0324
rtibia 7.85766
rfoot -21.2304 -2.96351
rtoes -22.165
lfemur -46.9306 -8.56379 -18.5832
ltibia 50.4264
lfoot -11.0164 2.20775
ltoes -34.372
260
root 7.58143 16.1868 31.2548 -155.116 1.50282 177.684
lowerback -25.6115 -1.38358 -6.14689
upperback -0.470325 0.504992 -0.721477
thorax 13.854 0.00700083 2.93533
lowerneck -5.57166 -2.21147 -1.38462
upperneck 17.1649 -4.5107 4.4146
head 6.24733 -2.28422 1.27416
rclavicle -5.26779e-015 -2.78299e-015
rhumerus -38.053 -18.7223 -78.9431
rradius 34.8615
rwrist -0.995606
rhand -8.17815 -55.5229
rfingers 7.12502
rthumb 17.7374 -84.734
lclavicle -5.26779e-015 -2.78299e-015
lhumerus -31.6705 9.13382 79.5476
lradius 24.7007
lwrist -2.76289
lhand -21.0587 -13.0785
lfingers 7.12502
lthumb 5.31768 16.8348
rfemur -21.2978 5.45163 22.677
rtibia 7.51386
rfoot -21.0889 -3.47572
rtoes -20.8332
lfemur -47.5492 -8.52082 -18.7556
ltibia 50.3229
lfoot -11.1358 2.81687
ltoes -36.4783
261
root 7.58429 16.1858 31.2344 -154.859 1.54192 177.894
lowerback -25.8101 -1.26859 -5.92252
upperback -0.496925 0.613621 -0.746373
thorax 13.9238 0.0732813 2.82018
lowerneck -5.93826 -2.18831 -1.23533
upperneck 17.6445 -4.5298 4.3015
head 6.45902 -2.29023 1.2032
rclavicle -1.83876e-015 0
rhumerus -37.9241 -18.486 -79.2072
rradius 35.0723
rwrist -1.46256
rhand -8.23579 -54.9817
rfingers 7.12502
rthumb 17.6819 -84.1978
lclavicle -1.83876e-015 0
lhumerus -31.6634 8.95789 79.5026
lradius 24.6916
lwrist -2.69239
lhand -20.4271 -13.9139
lfingers 7.12502
lthumb 5.92749 15.9832
rfemur -21.3548 5.84352 22.8643
rtibia 7.24571
rfoot -20.9688 -3.66556
rtoes -20.4242
lfemur -48.3266 -8.28631 -18.4484
ltibia 50.1279
lfoot -11.1506 3.36529
ltoes -35.8631
262
root 7.58413 16.1922 31.2034 -155.077 1.55753 178.025
lowerback -25.6811 -1.19691 -5.78643
upperback -0.359296 0.638849 -0.734643
thorax 14.0128 0.0786002 2.76156
lowerneck -6.2462 -2.18332 -1.18209
upperneck 18.0406 -4.55216 4.18655
head 6.63663 -2.30409 1.14852
rclavicle -2.33572e-015 1.03368e-014
rhumerus -37.6771 -18.2259 -79.4168
rradius 35.1444
rwrist -1.47724
rhand -7.6109 -54.3436
rfingers 7.12502
rthumb 18.2832 -83.5043
lclavicle -2.33572e-015 1.03368e-014
lhumerus -31.649 8.9995 79.497
lradius 24.6575
lwrist -2.44196
lhand -20.9927 -13.3512
lfingers 7.12502
lthumb 5.38142 16.5605
rfemur -20.9387 5.60985 23.0753
rtibia 7.12961
rfoot -21.0013 -3.3912
rtoes -20.6855
lfemur -48.42 -8.16534 -18.3055
ltibia 49.6397
lfoot -11.2068 3.72903
ltoes -33.8819
263
root 7.58468 16.1957 31.1765 -155.128 1.59013 177.924
lowerback -25.6114 -1.23287 -5.88831
upperback -0.3296 0.620405 -0.771175
thorax 14.011 0.0633014 2.77016
lowerneck -6.2062 -2.19028 -1.18286
upperneck 18.2174 -4.57868 4.10165
head 6.68496 -2.33001 1.1184
rclavicle 7.50412e-015 9.54166e-015
rhumerus -37.4745 -18.1319 -79.51
rradius 35.0404
rwrist -0.938767
rhand -6.33564 -53.7287
rfingers 7.12502
rthumb 19.5097 -82.7698
lclavicle 7.50412e-015 9.54166e-015
lhumerus -31.7433 9.13057 79.4206
lradius 24.6137
lwrist -2.36775
lhand -20.7852 -13.7101
lfingers 7.12502
lthumb 5.58177 16.1964
rfemur -20.8124 5.79693 22.934
rtibia 7.22618
rfoot -21.1353 -3.67555
rtoes -20.8844
lfemur -48.7156 -8.15215 -18.3619
ltibia 49.1597
lfoot -11.2297 4.14313
ltoes -34.4708
264
root 7.58749 16.197 31.1533 -155.049 1.54049 177.905
lowerback -25.532 -1.24422 -5.8864
upperback -0.372823 0.610719 -0.825226
thorax 13.9172 0.0678496 2.70298
lowerneck -6.13102 -2.20748 -1.07346
upperneck 18.367 -4.61879 3.95067
head 6.71509 -2.36096 1.04845
rclavicle 7.05686e-015 -5.56597e-015
rhumerus -37.4214 -17.9687 -79.7231
rradius 35.1914
rwrist -0.797961
rhand -5.86761 -53.6233
rfingers 7.12502
rthumb 19.9596 -82.6183
lclavicle 7.05686e-015 -5.56597e-015
lhumerus -31.7897 9.35881 79.2155
lradius 24.4272
lwrist -2.56319
lhand -21.2245 -13.3128
lfingers 7.12502
lthumb 5.15759 16.6045
rfemur -21.2101 4.93898 23.0834
rtibia 7.99408
rfoot -21.6987 -2.9629
rtoes -20.9134
lfemur -49.1822 -8.15999 -18.2372
ltibia 48.6739
lfoot -11.1536 4.46894
ltoes -35.5686
265
root 7.58804 16.1931 31.1256 -154.896 1.54832 177.877
lowerback -25.5745 -1.21987 -5.86719
upperback -0.396102 0.656837 -0.899689
thorax 13.9106 0.0968686 2.62405
lowerneck -6.01891 -2.21299 -0.963573
upperneck 18.2976 -4.61215 3.83272
head 6.66791 -2.36119 0.995399
rclavicle 2.48481e-015 5.56597e-015
rhumerus -37.3387 -17.8887 -79.9257
rradius 35.4037
rwrist -0.915408
rhand -5.86347 -53.2987
rfingers 7.12502
rthumb 19.9636 -82.2932
lclavicle 2.48481e-015 5.56597e-015
lhumerus -31.7489 9.62554 79.0252
lradius 24.181
lwrist -2.87091
lhand -21.2233 -13.272
lfingers 7.12502
lthumb 5.15872 16.6453
rfemur -20.803 5.35194 22.9918
rtibia 7.11887
rfoot -21.4228 -3.37827
rtoes -21.3262
lfemur -49.645 -8.15126 -18.1504
ltibia 47.9229
lfoot -10.8271 4.70265
ltoes -35.7825
